<mxfile host="app.diagrams.net" modified="2024-02-24T10:22:40.065Z" agent="Mozilla/5.0 (Windows NT 10.0; Win64; x64) AppleWebKit/537.36 (KHTML, like Gecko) Chrome/122.0.0.0 Safari/537.36" etag="vPOJi6ssKQUJKxVRIjFU" version="23.1.1" type="github">
  <diagram name="Page-1" id="197159a0-c6a4-9194-75a8-e4174976684c">
    <mxGraphModel dx="1160" dy="687" grid="0" gridSize="10" guides="1" tooltips="1" connect="1" arrows="1" fold="1" page="1" pageScale="1.5" pageWidth="1169" pageHeight="826" background="none" math="0" shadow="0">
      <root>
        <mxCell id="0" style=";html=1;" />
        <mxCell id="1" style=";html=1;" parent="0" />
        <mxCell id="1257a543d1cacc4b-52" value="Title" style="text;strokeColor=none;fillColor=none;html=1;fontSize=24;fontStyle=1;verticalAlign=middle;align=center;" parent="1" vertex="1">
          <mxGeometry x="160" y="60" width="1420" height="40" as="geometry" />
        </mxCell>
        <mxCell id="GI-443AvZaHswpVMIm0E-2" value="&lt;b&gt;&lt;font style=&quot;font-size: 14px;&quot;&gt;存储模型&lt;/font&gt;&lt;/b&gt;" style="shadow=0;dashed=0;html=1;strokeColor=none;fillColor=#4495D1;labelPosition=center;verticalLabelPosition=bottom;verticalAlign=top;align=center;outlineConnect=0;shape=mxgraph.veeam.storage_cluster;" vertex="1" parent="1">
          <mxGeometry x="895" y="716" width="100" height="82" as="geometry" />
        </mxCell>
        <mxCell id="GI-443AvZaHswpVMIm0E-4" value="&lt;b&gt;&lt;font style=&quot;font-size: 14px;&quot;&gt;用户&lt;/font&gt;&lt;/b&gt;" style="shadow=0;dashed=0;html=1;strokeColor=none;fillColor=#4495D1;labelPosition=center;verticalLabelPosition=bottom;verticalAlign=top;align=center;outlineConnect=0;shape=mxgraph.veeam.2d.user;" vertex="1" parent="1">
          <mxGeometry x="422" y="726" width="32" height="58" as="geometry" />
        </mxCell>
        <mxCell id="GI-443AvZaHswpVMIm0E-7" value="&lt;b&gt;&lt;font style=&quot;font-size: 16px;&quot;&gt;交互逻辑&lt;/font&gt;&lt;/b&gt;" style="shape=flexArrow;endArrow=classic;startArrow=classic;html=1;rounded=0;" edge="1" parent="1" source="GI-443AvZaHswpVMIm0E-11" target="GI-443AvZaHswpVMIm0E-2">
          <mxGeometry width="100" height="100" relative="1" as="geometry">
            <mxPoint x="727" y="756" as="sourcePoint" />
            <mxPoint x="858" y="651" as="targetPoint" />
          </mxGeometry>
        </mxCell>
        <mxCell id="GI-443AvZaHswpVMIm0E-8" value="" style="shape=flexArrow;endArrow=classic;startArrow=classic;html=1;rounded=0;" edge="1" parent="1" source="GI-443AvZaHswpVMIm0E-4" target="GI-443AvZaHswpVMIm0E-11">
          <mxGeometry width="100" height="100" relative="1" as="geometry">
            <mxPoint x="711" y="801" as="sourcePoint" />
            <mxPoint x="645" y="755.724409448819" as="targetPoint" />
          </mxGeometry>
        </mxCell>
        <mxCell id="GI-443AvZaHswpVMIm0E-9" value="&lt;b&gt;&lt;font style=&quot;font-size: 16px;&quot;&gt;使用物品&lt;/font&gt;&lt;/b&gt;" style="edgeLabel;html=1;align=center;verticalAlign=middle;resizable=0;points=[];" vertex="1" connectable="0" parent="GI-443AvZaHswpVMIm0E-8">
          <mxGeometry x="-0.1145" relative="1" as="geometry">
            <mxPoint as="offset" />
          </mxGeometry>
        </mxCell>
        <mxCell id="GI-443AvZaHswpVMIm0E-11" value="&lt;b&gt;&lt;font style=&quot;font-size: 14px;&quot;&gt;缓存&lt;/font&gt;&lt;/b&gt;" style="shadow=0;dashed=0;html=1;strokeColor=none;fillColor=#4495D1;labelPosition=center;verticalLabelPosition=bottom;verticalAlign=top;align=center;outlineConnect=0;shape=mxgraph.veeam.snapshot;" vertex="1" parent="1">
          <mxGeometry x="654" y="732.6" width="55.6" height="48.8" as="geometry" />
        </mxCell>
      </root>
    </mxGraphModel>
  </diagram>
</mxfile>
